<svg xmlns="http://www.w3.org/2000/svg" xmlns:xlink="http://www.w3.org/1999/xlink" width="1920" height="919" version="1.1" viewBox="0 0 1920 919"><g id="Canvas" fill="none"><g id="header-color" clip-path="url(#clip0)"><rect width="1920" height="918.333" fill="#C8C8C8"/><g id="Group 27"><rect id="Rectangle 32" width="918" height="273.333" fill="#ADD8FF" transform="matrix(0 1 -1 0 1920 0)"/><rect id="Rectangle 32.1" width="1062" height="300.06" fill="#80B9EE" transform="matrix(0 1 -1 0 1836 -93)"/><rect id="Rectangle 32.2" width="1070" height="337" fill="#559CE4" transform="matrix(0 1 -1 0 1727 -79)"/><rect id="Rectangle 32.3" width="918" height="352.952" fill="#0078D4" transform="matrix(0 1 -1 0 1579.94 0)"/><rect id="Rectangle 32.4" width="918" height="496" fill="#235A9F" transform="matrix(0 1 -1 0 1405 0)"/><rect id="Rectangle 32.5" width="918" height="655" fill="#174276" transform="matrix(0 1 -1 0 1191 0)"/><rect id="Rectangle 32.6" width="918" height="947" fill="#092642" transform="matrix(0 1 -1 0 947 0)"/></g></g></g><defs><clipPath id="clip0"><rect width="1920" height="918.333" fill="#fff"/></clipPath></defs></svg>